<svg width="300" height="300" fill="none" xmlns="http://www.w3.org/2000/svg"><path fill-rule="evenodd" clip-rule="evenodd" d="M267.317 127.765c-.27.54-.54 1.08-.54 1.35-.54 1.079-1.08 2.159-1.889 2.968-.27.27-.54.81-.81 1.08-1.619 1.889-3.238 3.508-5.127 5.397l-.27.27c-.27.27-.81.81-1.08.81-1.079.809-1.889 1.349-2.968 1.889l-3.239 1.619c-.27.27-.81.27-1.08.54-.269 0-.539.27-.809.27-3.239 1.079-6.207 2.159-9.446 2.699-1.619.27-3.238.809-4.858 1.079-.539 0-1.079.27-1.619.27h-1.079c-4.049.27-7.827.54-11.875.81.81-17.542 1.889-34.814 2.699-52.356h5.397c2.699 0 5.398.27 8.367.54.269 0 2.159.27 2.698.27 1.62.27 3.509.809 5.128 1.079 1.349.27 2.969.81 4.318 1.35.81.269 1.349.539 2.159.809h.27c.54.27 1.889.809 2.159 1.079 1.349.54 2.429 1.35 3.508 2.159.27.27 2.429 1.62 2.699 1.889.54.54 1.349 1.35 1.619 1.35l2.429 2.429.81.809s0 .27.27.27c.539 1.08 1.349 1.889 1.889 2.969.54 1.079 1.079 2.968.54.809.269 1.08.809 2.159 1.079 3.239 0 .54.27 1.079.27 1.349v4.318s0 .27-.27.54c-.81 1.619-1.079 2.699-1.349 4.048M260.84 73.52c-16.193-6.747-34.545-6.207-51.817-5.667-7.556.27-14.843 6.477-14.573 14.573 0 .81.27 1.62.27 2.699 0 .54-.27 1.08-.27 1.889l-8.096 153.02c-1.08 18.621 28.067 18.621 29.146 0l3.239-61.532c12.414-.54 25.098-1.619 36.703-5.667 14.304-4.858 26.988-13.764 34.814-26.988 8.096-13.494 8.636-29.417 2.429-43.72-5.937-13.494-18.352-23.21-31.845-28.607" fill="#CE6E78"/><path fill-rule="evenodd" clip-rule="evenodd" d="M92.437 188.757c-1.89-.809-4.048-1.349-6.207-1.619-17.542-1.889-34.814-2.429-52.356-1.349-.54-10.256-.54-20.511-.27-30.766a318.14 318.14 0 0 0 8.906-74.756c1.08-5.398 2.428-10.795 3.778-15.923 4.858-18.351-22.94-26.178-27.527-8.096C8.505 96.19 3.646 137.211 4.997 178.502c0 .27-.27.81-.27 1.079-.81 4.858-1.08 9.986 0 14.844-1.08 2.159-1.62 4.318-1.62 6.747.27 7.286 6.478 15.383 14.304 14.573 22.94-2.159 45.88-2.159 68.819.27 2.159.27 4.048-.27 5.937-1.08 5.397-.27 8.636-4.588 8.906-9.176 4.048-6.477 1.349-17.002-8.636-17.002" fill="#E5CD67"/><path fill-rule="evenodd" clip-rule="evenodd" d="M138.046 216.015c18.082 0 18.082-29.687 0-29.687s-18.082 29.687 0 29.687z" fill="#6ABA96"/></svg>