<svg width="300" height="300" viewBox="0 0 300 300" fill="none" xmlns="http://www.w3.org/2000/svg">
<path fill-rule="evenodd" clip-rule="evenodd" d="M241.846 132.593C241.634 133.015 241.423 133.438 241.423 133.649C241.001 134.494 240.578 135.339 239.944 135.973C239.733 136.185 239.522 136.607 239.31 136.818C238.043 138.297 236.775 139.565 235.296 141.044L235.085 141.255C234.873 141.467 234.451 141.889 234.239 141.889C233.394 142.523 232.76 142.946 231.915 143.368L229.38 144.636C229.169 144.847 228.746 144.847 228.535 145.058C228.324 145.058 228.112 145.27 227.901 145.27C225.366 146.115 223.041 146.96 220.506 147.383C219.238 147.594 217.971 148.016 216.703 148.228C216.28 148.228 215.858 148.439 215.435 148.439H214.59C211.421 148.65 208.463 148.862 205.294 149.073C205.928 135.339 206.773 121.817 207.407 108.084H211.632C213.745 108.084 215.858 108.295 218.182 108.507C218.393 108.507 219.872 108.718 220.295 108.718C221.563 108.929 223.041 109.352 224.309 109.563C225.366 109.774 226.633 110.197 227.69 110.619C228.324 110.831 228.746 111.042 229.38 111.253H229.591C230.014 111.464 231.07 111.887 231.282 112.098C232.338 112.521 233.183 113.155 234.028 113.789C234.239 114 235.93 115.056 236.141 115.268C236.564 115.69 237.197 116.324 237.409 116.324L239.31 118.226L239.944 118.859C239.944 118.859 239.944 119.071 240.155 119.071C240.578 119.916 241.212 120.55 241.634 121.395C242.057 122.24 242.479 123.719 242.057 122.029C242.268 122.874 242.691 123.719 242.902 124.564C242.902 124.987 243.113 125.409 243.113 125.62V129.001C243.113 129.001 243.113 129.212 242.902 129.424C242.268 130.691 242.057 131.536 241.846 132.593M236.775 90.125C224.098 84.8429 209.731 85.2655 196.209 85.688C190.293 85.8993 184.588 90.7588 184.799 97.0973C184.799 97.7311 185.011 98.365 185.011 99.2101C185.011 99.6327 184.799 100.055 184.799 100.689L178.461 220.486C177.616 235.065 200.434 235.065 201.279 220.486L203.815 172.314C213.534 171.891 223.464 171.046 232.549 167.877C243.747 164.074 253.677 157.102 259.805 146.749C266.143 136.185 266.566 123.719 261.706 112.521C257.058 101.957 247.339 94.3506 236.775 90.125" fill="#CE6E78"/>
<path fill-rule="evenodd" clip-rule="evenodd" d="M104.935 180.343C103.456 179.709 101.765 179.286 100.075 179.075C86.3417 177.596 72.8196 177.173 59.0862 178.018C58.6636 169.99 58.6637 161.961 58.8749 153.932C63.5231 134.706 65.8473 115.056 65.8473 95.407C66.6924 91.1813 67.7488 86.9557 68.8052 82.9413C72.6083 68.5741 50.8462 62.4469 47.2544 76.6028C39.2257 107.873 35.4226 139.988 36.479 172.314C36.479 172.525 36.2677 172.948 36.2677 173.159C35.6338 176.962 35.4226 180.976 36.2677 184.779C35.4226 186.47 35 188.16 35 190.062C35.2113 195.766 40.0708 202.105 46.198 201.471C64.157 199.781 82.116 199.781 100.075 201.682C101.765 201.893 103.244 201.471 104.723 200.837C108.949 200.626 111.484 197.245 111.696 193.653C114.865 188.583 112.752 180.343 104.935 180.343" fill="#E5CD67"/>
<path fill-rule="evenodd" clip-rule="evenodd" d="M140.641 201.682C154.797 201.682 154.797 178.441 140.641 178.441C126.485 178.441 126.485 201.682 140.641 201.682Z" fill="#6ABA96"/>
</svg>
