<svg id="Layer_1" xmlns="http://www.w3.org/2000/svg" viewBox="0 0 276 85"><style>.st0,.st1,.st2,.st3,.st4,.st5,.st6{fill-rule:evenodd;clip-rule:evenodd;fill:#ce6e78}.st1,.st2,.st3,.st4,.st5,.st6{fill:#e5cd67}.st2,.st3,.st4,.st5,.st6{fill:#93ccc8}.st3,.st4,.st5,.st6{fill:#e8bd0c}.st4,.st5,.st6{fill:#dda58e}.st5,.st6{fill:#e090c9}.st6{fill:#6aba96}</style><path class="st0" d="M97.9 38.3c-.1.2-.2.4-.2.5-.2.4-.4.8-.7 1.1-.1.1-.2.3-.3.4-.6.7-1.2 1.3-1.9 2l-.1.1c-.1.1-.3.3-.4.3-.4.3-.7.5-1.1.7L92 44c-.1.1-.3.1-.4.2-.1 0-.2.1-.3.1-1.2.4-2.3.8-3.5 1-.6.1-1.2.3-1.8.4-.2 0-.4.1-.6.1H85c-1.5.1-2.9.2-4.4.3.3-6.5.7-12.9 1-19.4h2c1 0 2 .1 3.1.2.1 0 .8.1 1 .1.6.1 1.3.3 1.9.4.5.1 1.1.3 1.6.5.3.1.5.2.8.3h.1c.2.1.7.3.8.4.5.2.9.5 1.3.8.1.1.9.6 1 .7.2.2.5.5.6.5l.9.9.3.3s0 .1.1.1c.2.4.5.7.7 1.1.2.4.4 1.1.2.3.1.4.3.8.4 1.2 0 .2.1.4.1.5v1.6s0 .1-.1.2c-.3.6-.4 1-.5 1.5m-2.4-20.1c-6-2.5-12.8-2.3-19.2-2.1-2.8.1-5.5 2.4-5.4 5.4 0 .3.1.6.1 1 0 .2-.1.4-.1.7l-3 56.7c-.4 6.9 10.4 6.9 10.8 0l1.2-22.8c4.6-.2 9.3-.6 13.6-2.1 5.3-1.8 10-5.1 12.9-10 3-5 3.2-10.9.9-16.2-2.2-5-6.8-8.6-11.8-10.6"/><path class="st1" d="M33.1 60.9c-.7-.3-1.5-.5-2.3-.6-6.5-.7-12.9-.9-19.4-.5-.2-3.8-.2-7.6-.1-11.4 2.2-9.1 3.3-18.4 3.3-27.7.4-2 .9-4 1.4-5.9 1.8-6.8-8.5-9.7-10.2-3C2 26.6.2 41.8.7 57.1c0 .1-.1.3-.1.4-.3 1.8-.4 3.7 0 5.5-.4.8-.6 1.6-.6 2.5.1 2.7 2.4 5.7 5.3 5.4 8.5-.8 17-.8 25.5.1.8.1 1.5-.1 2.2-.4 2-.1 3.2-1.7 3.3-3.4 1.5-2.4.5-6.3-3.2-6.3"/><path class="st2" d="M143.2 32.9c1.3-.4 2.6-.7 3.9-.9.4 0 .7-.1 1.1-.1.8 0 1.6-.1 2.3 0 2.8.1 5.6-2.5 5.4-5.4-.1-3-2.4-5.3-5.4-5.4-7.6-.2-15 2.5-20.9 7.1-.5-2.4-2.6-4.5-5.3-4.4-2.8.1-5.6 2.4-5.4 5.4.2 4.7.1 9.3-.2 13.8-.2.6-.4 1.1-.6 1.7-.3 1-.2 2.1.1 3.1-.6 4.8-1.6 9.7-3 14.5-.8 2.7.9 6 3.8 6.6 2.9.7 5.9-.9 6.7-3.8 1.8-6.5 3-13.2 3.7-19.9.1-.2.2-.5.4-.7.6-1.3 1.4-2.4 2.2-3.6 0 0 0-.1.1-.1.2-.2.4-.5.6-.7l1.5-1.5c.5-.5 1-1 1.6-1.4.2-.2.5-.5.7-.6.1 0 .1-.1.1-.1 1.2-.8 2.4-1.6 3.6-2.2.5-.3 1-.6 1.6-.7.1 0 .3-.1.3-.1.4-.4.7-.5 1.1-.6"/><path class="st3" d="M167.5 52.7s-.1.1-.2.1c-.1.1-.2.2-.3.2-.3.1-.9.6-1.1.7-.2.1-.3.1-.4.1-.4.1-.8.2-1.1.3h-.1-.1c-.2 0-.4 0-.5.1.1 0 .2-.1.3-.1h-1.5-.2-.1c-.1 0-.3-.1-.4-.1-1-.2-2-.6-3-.9-.2-.1-.3-.2-.5-.2-.5-.3-1.1-.5-1.6-.8-.4-.3-.9-.5-1.3-.8-.1-.1-.3-.3-.5-.4 0 .1 0 .1-.3-.1l-.1-.1h-.1.1c-.2-.1-.3-.3-.5-.4l-.4-.4-.1-.1.1.1s0-.1-.1-.1c-.3-.4-.2-.3-.1-.2-.2-.3-.4-.5-.5-.7 0-.1-.1-.2-.1-.2v-.1-.2-.3-.1c.1-.2.4-.9 0-.3-.4.7.2-.4.2-.4.1-.2.2-.3.3-.5 0-.1.1-.1.1-.2l1-1c.2-.1.5-.3.5-.3.5-.3 1-.6 1.5-.8l.6-.3h.1c1.2-.5 2.4-.9 3.7-1.3.8-.3 1.5-.7 2.1-1.2.5.6 1 1.1 1.5 1.7.3.4.6.8 1 1.1.2.3.4.5.6.8.3.4.5.8.8 1.2.1.1.3.5.5.8l.1.2c.1.3.2.5.3.8.2.5.3 1 .4 1.6v1.2c-.1.3-.1.6-.2.9 0 0 0 .1-.1.1 0 0-.1.1-.1.2l.1-.1-.2.2-.1.1v.2m-5.7 1.5c.1 0 .3 0 .4.1-.2 0-.3 0-.4-.1m5.8-6.4s-.1-.3-.2-.5c.1.3.2.4.2.5m-4.9-14.3c-1.3-1-2.9-1.4-4.6-.9-5.8 1.8-12 4.3-14.7 10.2-1.4 3.1-1.9 6.6-.6 9.8 1.3 3.2 3.5 5.6 6.3 7.6 5 3.7 11.7 5.6 17.8 4.5 6.5-1.2 11.4-6.5 12-13 .7-7.2-4-13.1-8.7-18.1-1.8-2.1-5.5-2.1-7.5-.1"/><path class="st4" d="M213.2 51.6v0m.3-14c-4.3-1.1-8.5-.4-12.5 1.3-1.4.6-2.8 1.5-4.1 2.4 0-1 .1-2 .2-3 .1-2.8-2.6-5.5-5.4-5.3-3 .1-5.2 2.3-5.4 5.3-.4 8.5-.9 17-1.3 25.5-.1 2.8 2.6 5.5 5.4 5.3 3-.1 5.2-2.3 5.4-5.3.1-2.7.3-5.4.4-8.1.6-.3 1.1-.6 1.6-1.1 1.2-1.2 2.5-2.4 3.8-3.5.1-.1.8-.8.9-.8 0 0-.8.6-.3.2.2-.1.3-.2.5-.3.7-.5 1.4-1 2.2-1.4.3-.2.7-.4 1-.5 0 0 .2-.1.3-.1.7-.2 1.3-.4 2-.6H209.9c.1 0 .3 0 .4.1.5.1 1 .3 1.5.5 0 0 .1 0 .1.1.2.1.4.3.6.4l.2.2.1.1c.1.2.2.4.3.5.1.2.1.5.2.7v1.3c-.2.6-.3 1.4-.4 2-.2.7-.4 1.5-.6 2.2-.5 1.9-.9 3.8-1.1 5.7-.2 2.4.4 4.6 1.4 6.8.5 1.1 2.1 2.1 3.2 2.5 1.3.4 3 .2 4.2-.5 2.5-1.6 3-4.2 2.1-6.7 0 .1.1.1 0-.2 0-.2-.1-.3-.1-.5v-1-.4c0 .3-.2.8-.1.2 0-.1 0-.2.1-.3.3-1.5.7-2.9 1.1-4.4 1.1-4.2 1.5-8.4-.5-12.4-1.7-3.5-5.4-5.9-9.1-6.9"/><path class="st5" d="M274.5 64.9c-5.7-7.1-13-12.8-21-16.9 0 0 .1 0 .1-.1.2-.2.4-.3.6-.5l.2-.2 2.4-1.8c3.6-2.6 7.4-5.1 11.3-7.3 2.4-1.4 3.5-4.9 1.9-7.3-1.6-2.4-4.7-3.4-7.3-1.9-6.4 3.7-12.4 7.9-18.1 12.6-.6-12.7-2.3-25.3-5.1-37.7-1.5-6.7-11.8-3.9-10.3 2.8 4.5 19.6 5.9 39.6 4.4 59.6-.5 6.9 10.2 6.8 10.7 0 .3-3.6.4-7.1.5-10.7 1.3.6 2.5 1.1 3.7 1.8 2.5 1.3 4.8 2.7 7.1 4.3.5.4 1.1.8 1.6 1.2.3.2.5.4.8.7 1 .9 2.1 1.7 3.1 2.7 2.1 1.9 4 4 5.8 6.2 1.8 2.2 5.7 2 7.5 0 2.2-2.3 2-5.2.1-7.5"/><path class="st6" d="M50 71c6.7 0 6.7-11 0-11s-6.7 11 0 11"/></svg>